<?xml version="1.0" encoding="utf-8"?>
<svg viewBox="374.2534 156.1986 36.0913 34.422" xmlns="http://www.w3.org/2000/svg">
  <path style="fill: currentFill"
        d="M 382.169 188.924 L 384.382 177.754 L 376.064 170.157 L 387.021 168.557 C 387.021 168.557 392.059 158.081 392.059 158.054 C 392.059 158.027 397.124 168.504 397.124 168.531 C 397.124 168.558 408.827 169.757 408.8 169.757 C 408.773 169.757 400.456 177.674 400.456 177.674 C 400.456 177.674 402.749 189.43 402.642 189.377 C 402.535 189.324 392.459 183.432 392.459 183.432 L 382.169 188.924 Z"
        transform="matrix(1, 0, 0, 1, -5.684341886080802e-14, 0)">
  </path>
  <g transform="matrix(1, 0, 0, 1, 374.2536732630033, 155.36458287729553)">
    <path
      d="M36.042,13.909c-0.123-0.377-0.456-0.646-0.85-0.688l-11.549-1.172L18.96,1.43c-0.16-0.36-0.519-0.596-0.915-0.596 s-0.755,0.234-0.915,0.598L12.446,12.05L0.899,13.221c-0.394,0.04-0.728,0.312-0.85,0.688c-0.123,0.377-0.011,0.791,0.285,1.055 l8.652,7.738L6.533,34.045c-0.083,0.387,0.069,0.787,0.39,1.02c0.175,0.127,0.381,0.191,0.588,0.191 c0.173,0,0.347-0.045,0.503-0.137l10.032-5.84l10.03,5.84c0.342,0.197,0.77,0.178,1.091-0.059c0.32-0.229,0.474-0.633,0.391-1.02 l-2.453-11.344l8.653-7.737C36.052,14.699,36.165,14.285,36.042,13.909z M25.336,21.598c-0.268,0.24-0.387,0.605-0.311,0.957 l2.097,9.695l-8.574-4.99c-0.311-0.182-0.695-0.182-1.006,0l-8.576,4.99l2.097-9.695c0.076-0.352-0.043-0.717-0.311-0.957 l-7.396-6.613l9.87-1.002c0.358-0.035,0.668-0.264,0.814-0.592l4.004-9.077l4.003,9.077c0.146,0.328,0.456,0.557,0.814,0.592 l9.87,1.002L25.336,21.598z"
      style="fill: currentColor;"/>
  </g>
</svg>
